<!-- Logo placeholder - Replace with actual logo -->
<svg width="500" height="500" xmlns="http://www.w3.org/2000/svg">
  <defs>
    <linearGradient id="heartGradient" x1="0%" y1="0%" x2="0%" y2="100%">
      <stop offset="0%" style="stop-color:#b71c1c;stop-opacity:1" />
      <stop offset="100%" style="stop-color:#d32f2f;stop-opacity:1" />
    </linearGradient>
  </defs>
  
  <!-- Background circle -->
  <circle cx="250" cy="250" r="240" fill="#fff" stroke="#b71c1c" stroke-width="4"/>
  
  <!-- Heart shape -->
  <path d="M250,400 C250,400 100,280 100,190 C100,140 130,120 160,120 C190,120 220,140 250,180 C280,140 310,120 340,120 C370,120 400,140 400,190 C400,280 250,400 250,400 Z" 
        fill="url(#heartGradient)" stroke="#7f0000" stroke-width="3"/>
  
  <!-- EKG line -->
  <path d="M60,260 L120,260 L140,240 L160,280 L180,180 L200,300 L220,260 L440,260" 
        stroke="#1a237e" stroke-width="4" fill="none" stroke-linecap="round"/>
  
  <!-- Text -->
  <text x="250" y="470" font-family="Arial, sans-serif" font-size="36" font-weight="bold" 
        fill="#b71c1c" text-anchor="middle">AMI Predictor</text>
</svg>
